<?xml version="1.0" standalone="no"?>
<!DOCTYPE svg PUBLIC "-//W3C//DTD SVG 1.0//EN" "http://www.w3.org/TR/2001/REC-SVG-20010904/DTD/svg10.dtd">
<svg width="200" height="100">
<defs>
    <linearGradient id="grad1" x1="0%" y1="0%" x2="0%" y2="100%">
      <stop offset="0%" style="stop-color:rgb(255,255,255);stop-opacity:1" />
      <stop offset="100%" style="stop-color:rgb(0,100,255);stop-opacity:1" />
    </linearGradient>
    <linearGradient id="grad-texto" x1="0%" y1="0%" x2="0%" y2="100%">
      <stop offset="0%" style="stop-color:black;stop-opacity:1" />
      <stop offset="100%" style="stop-color:rgb(100,100,100);stop-opacity:1" />
    </linearGradient>
  </defs>
<line x1="100" y1="100" x2="50" y2="200" style="stroke:black;stroke-width:2" />
<line x1="100" y1="100" x2="150" y2="200" style="stroke:black;stroke-width:2" />
<g transform="translate(100,100)"><circle cx="0" cy="0" r="20" stroke="black" stroke-width="3" style="fill:url(#grad1)">
</circle>
<text x="-7" y="7" style="fill:url(#grad-texto)" font-size="20">D</text>
<text x="-14" y="35" style="fill:black" font-size="15">h=3</text></g>
<line x1="50" y1="200" x2="75" y2="300" style="stroke:black;stroke-width:2" />
<g transform="translate(50,200)"><circle cx="0" cy="0" r="20" stroke="black" stroke-width="3" style="fill:url(#grad1)">
</circle>
<text x="-7" y="7" style="fill:url(#grad-texto)" font-size="20">B</text>
<text x="-14" y="35" style="fill:black" font-size="15">h=1</text></g>
<g transform="translate(75,300)"><circle cx="0" cy="0" r="20" stroke="black" stroke-width="3" style="fill:url(#grad1)">
</circle>
<text x="-7" y="7" style="fill:url(#grad-texto)" font-size="20">C</text>
<text x="-14" y="35" style="fill:black" font-size="15">h=0</text></g>
<line x1="150" y1="200" x2="175" y2="300" style="stroke:black;stroke-width:2" />
<g transform="translate(150,200)"><circle cx="0" cy="0" r="20" stroke="black" stroke-width="3" style="fill:url(#grad1)">
</circle>
<text x="-7" y="7" style="fill:url(#grad-texto)" font-size="20">F</text>
<text x="-14" y="35" style="fill:black" font-size="15">h=2</text></g>
<line x1="175" y1="300" x2="163" y2="400" style="stroke:black;stroke-width:2" />
<g transform="translate(175,300)"><circle cx="0" cy="0" r="20" stroke="black" stroke-width="3" style="fill:url(#grad1)">
</circle>
<text x="-7" y="7" style="fill:url(#grad-texto)" font-size="20">H</text>
<text x="-14" y="35" style="fill:black" font-size="15">h=1</text></g>
<g transform="translate(163,400)"><circle cx="0" cy="0" r="20" stroke="black" stroke-width="3" style="fill:url(#grad1)">
</circle>
<text x="-7" y="7" style="fill:url(#grad-texto)" font-size="20">G</text>
<text x="-14" y="35" style="fill:black" font-size="15">h=0</text></g>
</svg>
